<?xml version="1.0" encoding="UTF-8"?>
<svg version="1.1" xmlns="http://www.w3.org/2000/svg" width="1254" height="1254">
<path d="M0 0 C413.82 0 827.64 0 1254 0 C1254 413.82 1254 827.64 1254 1254 C840.18 1254 426.36 1254 0 1254 C0 840.18 0 426.36 0 0 Z " fill="#000000" transform="translate(0,0)"/>
<path d="M0 0 C7.87499985 6.74999987 7.87499985 6.74999987 10.83028603 9.7072382 C11.84455963 10.71852522 11.84455963 10.71852522 12.8793236 11.75024229 C13.95837956 12.83366751 13.95837956 12.83366751 15.05923462 13.9389801 C15.84164626 14.72053732 16.62405791 15.50209454 17.430179 16.30733532 C20.03867706 18.91419263 22.64359629 21.52459625 25.24853516 24.13500977 C27.12299006 26.00974688 28.99764247 27.88428452 30.87254333 29.75857544 C34.90323354 33.78874258 38.93209601 37.82072934 42.95970535 41.8539753 C48.7883099 47.69073099 54.61969664 53.52470059 60.45175104 59.35800897 C69.92226645 68.83071054 79.39054932 78.30564034 88.85742188 87.78198242 C98.03821902 96.97195329 107.22006132 106.16087782 116.40332031 115.34838867 C116.96917039 115.91450147 117.53502046 116.48061427 118.11801751 117.063882 C120.95760767 119.90477753 123.79721863 122.74565227 126.63684011 125.5865165 C146.20497692 145.16325945 165.77090033 164.74221242 185.33454895 184.32344055 C186.15911791 185.14874911 186.98368687 185.97405766 187.83324277 186.82437557 C189.3515631 188.34407058 190.86987095 189.86377806 192.38816321 191.38350111 C194.25869285 193.25574999 196.12933206 195.12788931 198 197 C198.50218701 197.50273056 199.00437402 198.00546112 199.52177882 198.52342594 C201.33861922 200.34158098 203.15856824 202.15576997 204.9921875 203.95703125 C205.61351562 204.56933594 206.23484375 205.18164062 206.875 205.8125 C207.49117187 206.41707031 208.10734375 207.02164063 208.7421875 207.64453125 C210.56824917 209.54957483 212.27658228 211.48239147 213.98825073 213.48725891 C218.57634704 218.74069699 223.50659072 223.63911258 228.44580078 228.55932617 C229.48325748 229.59650019 230.52049284 230.63389566 231.55752563 231.67149353 C234.35264457 234.46689748 237.15082026 237.25922289 239.94958353 240.05097747 C242.88786394 242.98296688 245.82327471 245.91782652 248.75900269 248.85237122 C254.31465536 254.40492439 259.87284928 259.95492639 265.43197906 265.5039981 C271.74410423 271.80494852 278.05339483 278.10873398 284.36244226 284.41276586 C295.14901661 295.19066857 305.93767244 305.96648396 316.72875977 316.73986816 C317.6174173 317.62708054 318.50607483 318.51429291 319.42166138 319.4283905 C320.18964113 320.19507144 320.95762089 320.96175238 321.74887276 321.75166607 C324.16695046 324.1667433 326.58364054 326.58320371 329 329 C329.59425781 329.59425781 330.18851563 330.18851563 330.80078125 330.80078125 C332.20052083 332.20052083 333.60026042 333.60026042 335 335 C338.86637246 317.19000771 342.48229181 299.37621399 344.5703125 281.26171875 C344.98725639 278.09673562 345.65484929 275.17738754 346.5078125 272.11328125 C347.45649492 268.03997021 347.84416223 263.86757431 348.37109375 259.72265625 C349.13859857 253.8228688 350.03842269 247.94343348 350.9375 242.0625 C351.09524902 241.01594238 351.25299805 239.96938477 351.41552734 238.89111328 C352.32381906 232.97947344 353.35007187 227.1026043 354.484375 221.23046875 C356.07303718 212.94087593 357.2240022 204.61776268 358.3125 196.25 C358.62784875 193.86099245 358.94463367 191.47217802 359.26152039 189.08337402 C359.48459542 187.40122864 359.70717355 185.7190173 359.92927551 184.03674316 C360.8140952 177.34922456 361.73065817 170.66636118 362.65625 163.984375 C362.93452041 161.96973091 363.21275954 159.9550825 363.4909668 157.94042969 C363.89942046 154.98336421 364.30880994 152.02644546 364.72134399 149.06994629 C365.10504319 146.31787664 365.48457505 143.56526051 365.86328125 140.8125 C365.97865234 139.99328064 366.09402344 139.17406128 366.21289062 138.33001709 C366.73323458 134.52150576 367.14052476 130.85549717 367 127 C366.05125 127.62003906 365.1025 128.24007812 364.125 128.87890625 C351.52149977 137.08748514 338.77198704 145.05682079 326 153 C324.65856029 148.97568088 326.01144142 146.45638686 327.4375 142.65625 C327.70900879 141.91113159 327.98051758 141.16601318 328.26025391 140.39831543 C329.16364591 137.92845996 330.08104532 135.4641039 331 133 C331.63441487 131.28396515 332.26852521 129.56781769 332.90234375 127.8515625 C335.26583256 121.46843046 337.65386771 115.0945268 340.04101562 108.72021484 C344.48215094 96.8541871 348.84063459 84.96783815 353 73 C353.35013153 71.99498444 353.35013153 71.99498444 353.70733643 70.96966553 C355.10474706 66.95713 356.49445294 62.94200494 357.87768555 58.92456055 C358.33497025 57.59770129 358.79330727 56.27120424 359.25268555 54.94506836 C363.94521771 41.39826377 368.21868765 27.73965518 372.3125 14 C372.57611328 13.11828125 372.83972656 12.2365625 373.11132812 11.328125 C373.74176894 9.2190139 374.37102587 7.10954896 375 5 C377.08207493 8.1231124 377.80372183 10.46187198 378.77734375 14.06640625 C388.448105 48.8802542 400.80755595 82.8366324 413.6105957 116.59716797 C416.8179243 125.06585137 419.96664585 133.55494807 423.015625 142.08203125 C423.32989441 142.94455002 423.64416382 143.80706879 423.96795654 144.69572449 C424.24955627 145.49198746 424.53115601 146.28825043 424.82128906 147.10864258 C425.07364319 147.81314041 425.32599731 148.51763824 425.58599854 149.2434845 C426 151 426 151 425 153 C410.55488818 144.1690073 396.14909846 135.30135721 382 126 C382.45161499 127.4396814 382.45161499 127.4396814 382.91235352 128.90844727 C384.18427992 133.3739975 384.80006634 137.86833705 385.40234375 142.46484375 C385.52457809 143.36698608 385.64681244 144.26912842 385.77275085 145.1986084 C386.165947 148.11093169 386.55173521 151.02418397 386.9375 153.9375 C387.20776957 155.94609892 387.4784415 157.95464374 387.74951172 159.96313477 C389.11408341 170.11333681 390.41540845 180.26768016 391.625 190.4375 C392.54431016 198.08714222 393.80692674 205.59810529 395.31787109 213.15136719 C397.02113551 221.79484543 398.39287806 230.48465788 399.75 239.1875 C399.87313568 239.97612427 399.99627136 240.76474854 400.12313843 241.57727051 C400.64775893 244.93818253 401.17200695 248.29915216 401.69544983 251.6602478 C403.30596191 261.98895401 404.95495397 272.31149593 406.60656738 282.63369751 C407.10803411 285.76892724 407.60827358 288.90435091 408.10839844 292.03979492 C410.3448353 306.03680252 412.65243037 320.02121534 415 334 C417.24203525 334.22121243 417.24203525 334.22121243 419.20550442 332.04338455 C420.1289317 331.1194125 421.05235899 330.19544044 422.00376892 329.24346924 C422.77494855 328.47591124 422.77494855 328.47591124 423.56170756 327.69284701 C425.29455838 325.96566144 427.020129 324.231378 428.74584961 322.49707031 C429.98221819 321.26177395 431.21901942 320.02691049 432.45622253 318.79244995 C435.82443701 315.42909792 439.1863432 312.05950353 442.54705882 308.68866062 C446.06045115 305.1665057 449.5790933 301.64960278 453.09706116 298.13201904 C459.00781972 292.2203227 464.91468568 286.30475935 470.8190918 280.38671875 C477.64695207 273.54314991 484.48000748 266.70480429 491.31609339 259.86945271 C497.88593893 253.30021763 504.45292052 246.72812777 511.01831245 240.15444183 C513.81450971 237.35471271 516.61155565 234.55583552 519.40925407 231.75760651 C522.70542718 228.4604286 525.99903692 225.16071092 529.29068184 221.8590126 C530.49958838 220.64718557 531.70934113 219.43620203 532.91999817 218.22612381 C534.57207414 216.57453882 536.22104211 214.91991178 537.86924744 213.26446533 C538.79305175 212.33898518 539.71685606 211.41350502 540.66865444 210.45998001 C542.99781153 208.10814812 542.99781153 208.10814812 544.69567204 205.67097092 C545.12610026 205.11955051 545.55652849 204.56813011 546 204 C546.66 204 547.32 204 548 204 C548.39084035 203.12185965 548.39084035 203.12185965 548.78957647 202.22597909 C550.07989575 199.85307104 551.45974701 198.29068027 553.36677647 196.38433456 C554.41684324 195.3273696 554.41684324 195.3273696 555.48812348 194.24905181 C556.25980533 193.48251352 557.03148719 192.71597522 557.82655334 191.9262085 C558.6442671 191.10608032 559.46198086 190.28595215 560.30447382 189.44097161 C562.57473279 187.16604837 564.84942886 184.89567245 567.12607014 182.62713957 C569.58025946 180.17952602 572.02868244 177.72615612 574.47782898 175.27349854 C579.27573246 170.47055225 584.07896164 165.67296609 588.88400943 160.87716839 C594.47509505 155.29646026 600.06095644 149.71053538 605.64661198 144.12439325 C615.60868592 134.16181863 625.57558427 124.20408447 635.54516602 114.24902344 C645.22881107 104.57947541 654.90893722 94.90642261 664.58520508 85.22949219 C665.18151334 84.63314397 665.77782161 84.03679574 666.39219982 83.42237636 C666.98745771 82.82707812 667.5827156 82.23177988 668.1960116 81.6184423 C679.20117324 70.61259171 690.20961776 59.61003001 701.21960257 48.60900454 C705.11922938 44.71239971 709.01787377 40.81481356 712.9162159 36.91692352 C717.66192555 32.17189438 722.40951099 27.42875118 727.15948326 22.68798897 C729.58511522 20.26698906 732.00993778 17.84519277 734.43262863 15.42124939 C737.05292576 12.80046562 739.67625058 10.18275221 742.3004303 7.56585693 C743.07434288 6.79039575 743.84825545 6.01493457 744.64561993 5.21597457 C745.69177508 4.17465609 745.69177508 4.17465609 746.75906467 3.11230087 C747.36515334 2.50691664 747.971242 1.9015324 748.59569699 1.27780318 C750 0 750 0 751 0 C751 204.93 751 409.86 751 621 C743.19475277 614.30978809 743.19475277 614.30978809 740.0625 610.6875 C735.92093529 605.99747681 731.670873 601.42405378 727.375 596.875 C726.68680176 596.14571289 725.99860352 595.41642578 725.28955078 594.66503906 C723.88313395 593.17481766 722.47655787 591.68474655 721.06982422 590.19482422 C717.85182412 586.78248394 714.64418507 583.36047051 711.4375 579.9375 C710.2005263 578.61718237 708.96354714 577.29686988 707.7265625 575.9765625 C707.11458008 575.32333008 706.50259766 574.67009766 705.87207031 573.99707031 C703.96538333 571.96307194 702.0571157 569.93056735 700.1484375 567.8984375 C690.12403526 557.22270354 690.12403526 557.22270354 685.8828125 552.6328125 C685.42112887 552.13439628 684.95944525 551.63598005 684.4837712 551.12246031 C683.51498517 550.06678132 682.55452503 549.0033327 681.60669148 547.92880207 C679.04020712 545.05052689 676.46474493 542.51378495 673.41354179 540.1503973 C667.09591847 534.94821878 662.91686099 529.97868409 661.73181534 521.68898201 C661.15261812 514.47764639 661.22904521 507.27593011 661.3750813 500.05068886 C661.43610482 496.25748323 661.41504183 492.46456433 661.40444946 488.67100525 C661.39714308 482.11428804 661.44069263 475.55953594 661.51977921 469.00331306 C661.6340427 459.5247263 661.67006752 450.04708013 661.68761109 440.56787937 C661.71817735 425.18542195 661.81114005 409.80400974 661.94384766 394.42211914 C662.07254954 379.48890374 662.17155042 364.55597323 662.23095703 349.62231445 C662.23463516 348.70028668 662.23831329 347.7782589 662.24210288 346.82829089 C662.26037471 342.2022901 662.27806631 337.5762873 662.29546952 332.95028317 C662.44037084 294.63279069 662.68674807 256.31646462 663 218 C662.34 218 661.68 218 661 218 C660.72729782 218.59834656 660.45459564 219.19669312 660.17362976 219.81317139 C659.0299039 221.94427996 657.93403106 223.30322739 656.22192383 224.98925781 C655.66406693 225.54373596 655.10621002 226.09821411 654.53144836 226.66949463 C653.92939072 227.25809265 653.32733307 227.84669067 652.70703125 228.453125 C652.08277756 229.07217712 651.45852386 229.69122925 650.81535339 230.32904053 C648.8191003 232.30751147 646.816312 234.27918743 644.8125 236.25 C642.82736234 238.20732784 640.8437716 240.16615943 638.86320496 242.12811279 C637.63274322 243.34652827 636.39962165 244.56226621 635.1632843 245.77471924 C632.24200263 248.66274071 629.4472891 251.60098321 626.77616882 254.72283936 C623.07216393 258.97518346 619.15745549 262.97002146 615.15625 266.94140625 C614.40569336 267.69050262 613.65513672 268.439599 612.88183594 269.21139526 C611.26519752 270.82425243 609.64740575 272.43595424 608.02856445 274.04660034 C605.46129622 276.60100992 602.89724802 279.15861337 600.33398438 281.71704102 C593.96971647 288.06799685 587.60000415 294.41348317 581.23046875 300.75915527 C575.8386057 306.13123735 570.44882867 311.50539616 565.06176758 316.8822937 C562.54518477 319.39243095 560.025591 321.89951836 557.50585938 324.40649414 C555.95167379 325.95704455 554.39762992 327.50773702 552.84375 329.05859375 C552.15055664 329.74662079 551.45736328 330.43464783 550.74316406 331.14352417 C547.56095141 334.32539476 544.48943934 337.54491856 541.55836487 340.96047974 C537.69594401 345.43251433 533.49196461 349.49383768 529.22241211 353.57373047 C527.46241555 355.26748662 525.70291149 356.96175464 523.9438324 358.65646362 C523.02056089 359.54479763 522.09728939 360.43313164 521.14603996 361.34838486 C515.69204022 366.61246574 510.27700737 371.91659089 504.8600291 377.21872497 C499.15588044 382.80156325 493.4373281 388.36716437 487.66577148 393.88037109 C483.0569229 398.28310068 478.48629889 402.72187819 473.95473868 407.20416176 C471.56643143 409.56394871 469.16173648 411.89554195 466.71766472 414.19829941 C453.13991239 427.01851244 447.00094161 437.51525371 444.43035793 456.11761761 C443.78923513 460.41162718 442.76678032 464.59318235 441.7265625 468.8046875 C441.37550403 470.3089815 441.02634541 471.81372142 440.67993164 473.3190918 C440.42229538 474.43131607 440.42229538 474.43131607 440.15945435 475.56600952 C436.89765128 489.65790023 433.69566915 503.76132838 430.57717896 517.88562012 C428.61259195 526.78357486 426.62579312 535.67577239 424.59375 544.55859375 C424.3874144 545.46059509 424.1810788 546.36259644 423.9684906 547.29193115 C423.76031204 548.20186829 423.55213348 549.11180542 423.33764648 550.04931641 C418.22281575 572.40672969 413.33617649 594.80584223 408.58398438 617.24291992 C406.72557989 626.01673341 404.86315377 634.78969402 403 643.5625 C402.79368958 644.53451355 402.58737915 645.5065271 402.37481689 646.50799561 C398.01759174 667.02759052 393.53020363 687.51797841 389 708 C388.67 708 388.34 708 388 708 C388.00016235 707.3088816 388.0003247 706.6177632 388.00049198 705.90570182 C388.00952529 664.13583561 387.9857598 622.36608624 387.92420971 580.59626202 C387.91670137 575.48320168 387.9094444 570.370141 387.90234375 565.25708008 C387.900927 564.2399527 387.89951025 563.22282532 387.89805056 562.17487589 C387.87891739 548.06847652 387.87311419 533.96213073 387.87871721 519.8557203 C387.91136531 437.27604982 387.64718525 354.7862834 384.1328125 272.26953125 C384.10022911 271.49994079 384.06764573 270.73035032 384.03407496 269.93743894 C382.6698818 237.72703933 381.11532843 205.54826348 378.2872467 173.42774582 C377.64941858 165.81647416 377.25271941 158.19038528 376.875 150.5625 C376.76508035 148.39317468 376.65355442 146.22396833 376.5383606 144.05491638 C376.43857491 142.17164025 376.34379829 140.28810047 376.24951172 138.40454102 C375.99284488 134.90236974 375.53606278 131.46947132 375 128 C374.9498877 128.79768799 374.89977539 129.59537598 374.84814453 130.41723633 C374.60861544 134.21575492 374.36737005 138.01416182 374.125 141.8125 C374.05780762 142.86664093 374.05780762 142.86664093 373.98925781 143.94207764 C373.45587326 152.28259484 372.89135407 160.61870159 372.24560547 168.95141602 C370.08635776 196.85207298 368.88547621 224.78461293 367.87600708 252.74713135 C367.28809919 269.03031047 366.60426563 285.3028051 365.69726562 301.5715332 C364.21221991 328.76020324 363.84379039 355.95844492 363.79939139 383.18109882 C363.79119612 387.56298216 363.77756817 391.9448496 363.76467896 396.32672119 C363.74317979 403.87595162 363.72494202 411.42518388 363.70907402 418.97442818 C363.68612806 429.88867457 363.65802312 440.80290318 363.62875474 451.71713423 C363.58137698 469.4350314 363.53803445 487.15293597 363.49731445 504.87084961 C363.45780612 522.05770439 363.41634456 539.24455267 363.37231445 556.43139648 C363.36822804 558.02688879 363.36822804 558.02688879 363.36405908 559.65461326 C363.35037709 564.99196399 363.33665732 570.32931462 363.32291877 575.6666652 C363.2094238 619.77776315 363.10251328 663.88887525 363 708 C362.67 708 362.34 708 362 708 C361.76635742 706.82308594 361.53271484 705.64617188 361.29199219 704.43359375 C358.67379647 691.2759677 355.9844451 678.13393435 353.25 665 C353.03279297 663.95620178 352.81558594 662.91240356 352.59179688 661.8369751 C349.5144189 647.06662626 346.34672244 632.32046193 343.04003906 617.59985352 C340.52121097 606.38408141 338.07390484 595.1538115 335.64468384 583.91830444 C331.686405 565.6165347 327.61127527 547.34640686 323.40266418 529.10070801 C321.68205016 521.63503088 319.99638059 514.16153216 318.3125 506.6875 C317.73446615 504.12367736 317.15628265 501.55988848 316.578125 498.99609375 C316.30806641 497.79839355 316.03800781 496.60069336 315.75976562 495.36669922 C315.08595434 492.38088378 314.41092513 489.39535213 313.734375 486.41015625 C313.53948486 485.54962646 313.34459473 484.68909668 313.14379883 483.80249023 C312.75891161 482.11244578 312.37077212 480.42313841 311.97924805 478.73461914 C310.80914839 473.66857145 309.70109962 468.59395425 308.64945984 463.50219727 C307.99032137 460.331459 307.31050711 457.16530654 306.62863159 453.99938965 C306.2968715 452.4352945 305.97398633 450.86928651 305.66067505 449.3013916 C305.21634118 447.08332553 304.74030088 444.87409933 304.2578125 442.6640625 C303.85780029 440.73747803 303.85780029 440.73747803 303.44970703 438.77197266 C301.89605588 433.83006806 298.57155841 430.63013548 295 427 C294.10093933 426.08067688 293.20187866 425.16135376 292.27557373 424.21417236 C289.60034237 421.49843686 286.90167306 418.80696203 284.19637489 416.1212101 C282.39021123 414.32796566 280.58732661 412.53147959 278.78520203 410.73417664 C274.96379128 406.92411083 271.13843834 403.1180186 267.3125 399.3125 C262.86480738 394.8884742 258.41878158 390.46279916 253.97694969 386.03288841 C252.20643276 384.2688211 250.43291725 382.50780747 248.65925598 380.74690247 C247.56997087 379.66125112 246.48082661 378.57545843 245.3918457 377.48950195 C244.9029335 377.00575607 244.4140213 376.52201019 243.91029358 376.02360535 C241.04850949 373.16226159 238.52512331 370.15642852 236 367 C234.35736313 365.30964511 232.68505023 363.64807806 231 362 C229.55658354 360.55938461 228.11474972 359.11718285 226.6739502 357.6739502 C225.84130142 356.84130142 225.00865265 356.00865265 224.15077209 355.15077209 C136.3260498 267.3260498 136.3260498 267.3260498 134.0227375 265.02237892 C132.79948568 263.79934395 131.57585608 262.57668642 130.35151482 261.35474205 C128.27777117 259.28483414 126.22775682 257.20837838 124.2578125 255.0390625 C116.61702796 246.70343639 108.73771202 238.62636039 100.75 230.625 C100.23278381 230.10528625 99.71556763 229.58557251 99.18267822 229.05010986 C97.70278975 227.56434718 96.21928421 226.08230553 94.734375 224.6015625 C93.87038086 223.73869629 93.00638672 222.87583008 92.11621094 221.98681641 C90.16101345 219.96127027 90.16101345 219.96127027 88 219 C88.00968287 219.97106907 88.00968287 219.97106907 88.01956135 220.96175569 C88.40049398 259.38281969 88.69192363 297.80363889 88.8681106 336.22621092 C88.88937106 340.84587881 88.91137469 345.46554288 88.93383789 350.08520508 C88.94052681 351.46466611 88.94052681 351.46466611 88.94735085 352.87199504 C89.0212018 367.73735132 89.15516885 382.60158305 89.31159753 397.46627354 C89.47091898 412.73388295 89.56507085 428.00090594 89.59950441 443.26931244 C89.62276199 452.68156481 89.69603483 462.09063835 89.83457994 471.50191129 C89.92487374 477.96726965 89.95150829 484.43099992 89.92952342 490.89694207 C89.91869509 494.62163793 89.93453357 498.3408083 90.02649307 502.06450462 C90.60317296 526.62545575 90.60317296 526.62545575 82.12518352 535.73422343 C79.25395369 538.42001741 76.25813539 540.86130608 73.13219154 543.24308598 C69.6491635 546.1130818 66.86732351 549.53376455 64 553 C62.75644043 554.35720958 61.50502212 555.70736933 60.23828125 557.04296875 C59.28199829 558.05435913 59.28199829 558.05435913 58.30639648 559.08618164 C57.64841064 559.7796167 56.9904248 560.47305176 56.3125 561.1875 C51.49261569 566.28702305 46.68607748 571.39646515 41.9375 576.5625 C37.42817328 581.46825104 32.87715421 586.33320606 28.3125 591.1875 C23.55110093 596.25435406 18.83801688 601.35576739 14.203125 606.5390625 C11.48137162 609.57931893 8.74585441 612.60650756 6 615.625 C5.51821289 616.15899414 5.03642578 616.69298828 4.54003906 617.24316406 C3.3807318 618.51463534 2.19302241 619.76010885 1 621 C0.67 621 0.34 621 0 621 C0 416.07 0 211.14 0 0 Z " fill="#BF011C" transform="translate(252,261)"/>
<path d="M0 0 C0.66 0.66 1.32 1.32 2 2 C-1.19265366 5.26687486 -4.39508592 8.52372224 -7.60693359 11.77172852 C-8.69788784 12.87775836 -9.786133 13.98646726 -10.87158203 15.09790039 C-12.43335749 16.69611251 -14.0046602 18.28439904 -15.578125 19.87109375 C-16.06057678 20.36902939 -16.54302856 20.86696503 -17.0401001 21.37998962 C-19.54639461 23.88751825 -21.39611458 25.61069139 -25 26 C-20.03805145 20.00499003 -14.6523376 14.53572963 -9.125 9.0625 C-8.24585938 8.18787109 -7.36671875 7.31324219 -6.4609375 6.41210938 C-4.3095654 4.27242952 -2.15588208 2.13513403 0 0 Z " fill="#AF011B" transform="translate(831,432)"/>
<path d="M0 0 C0.99 0.33 1.98 0.66 3 1 C-1.29 5.29 -5.58 9.58 -10 14 C-10.66 13.34 -11.32 12.68 -12 12 C-8.04 8.04 -4.08 4.08 0 0 Z " fill="#A90219" transform="translate(793,599)"/>
<path d="M0 0 C0.33 0 0.66 0 1 0 C1.33 7.26 1.66 14.52 2 22 C-1 19 -1 19 -1.328125 16.07421875 C-1.30234375 14.95660156 -1.2765625 13.83898437 -1.25 12.6875 C-1.23453125 11.57761719 -1.2190625 10.46773438 -1.203125 9.32421875 C-1.00925228 6.15141719 -0.58566285 3.12196086 0 0 Z " fill="#300004" transform="translate(627,383)"/>
<path d="M0 0 C2 3 2 3 1.64453125 5.19140625 C1.36996094 5.97386719 1.09539063 6.75632812 0.8125 7.5625 C0.41998047 8.74005859 0.41998047 8.74005859 0.01953125 9.94140625 C-1 12 -1 12 -4 14 C-3.52188823 12.22888156 -3.0424722 10.45811517 -2.5625 8.6875 C-2.29566406 7.70136719 -2.02882813 6.71523438 -1.75390625 5.69921875 C-1.21920575 3.78482474 -0.62855462 1.88566385 0 0 Z " fill="#9C0115" transform="translate(627,266)"/>
<path d="M0 0 C0 3.49889647 -0.54120332 4.0553603 -2.75 6.625 C-3.26046875 7.23601563 -3.7709375 7.84703125 -4.296875 8.4765625 C-6.19607419 10.17538747 -7.51275949 10.5998787 -10 11 C-6.79239749 7.19364503 -3.59253891 3.45436433 0 0 Z " fill="#A2021D" transform="translate(680,584)"/>
</svg>
